<?xml version="1.0" encoding="UTF-8" standalone="no"?>
<svg
   xmlns:dc="http://purl.org/dc/elements/1.1/"
   xmlns:cc="http://creativecommons.org/ns#"
   xmlns:rdf="http://www.w3.org/1999/02/22-rdf-syntax-ns#"
   xmlns:svg="http://www.w3.org/2000/svg"
   xmlns="http://www.w3.org/2000/svg"
   xmlns:sodipodi="http://sodipodi.sourceforge.net/DTD/sodipodi-0.dtd"
   xmlns:inkscape="http://www.inkscape.org/namespaces/inkscape"
   width="24.224606mm"
   height="31.14946mm"
   viewBox="0 0 24.224606 31.14946"
   version="1.1"
   id="svg8"
   inkscape:version="1.0.2 (e86c870879, 2021-01-15)"
   sodipodi:docname="frontispice-moai.svg">
  <defs
     id="defs2" />
  <sodipodi:namedview
     id="base"
     pagecolor="#ffffff"
     bordercolor="#666666"
     borderopacity="1.0"
     inkscape:pageopacity="0.0"
     inkscape:pageshadow="2"
     inkscape:zoom="2.5436091"
     inkscape:cx="45.778793"
     inkscape:cy="58.865124"
     inkscape:document-units="mm"
     inkscape:current-layer="layer1"
     inkscape:document-rotation="0"
     showgrid="false"
     inkscape:window-width="1916"
     inkscape:window-height="1038"
     inkscape:window-x="0"
     inkscape:window-y="40"
     inkscape:window-maximized="0" />
  <metadata
     id="metadata5">
    <rdf:RDF>
      <cc:Work
         rdf:about="">
        <dc:format>image/svg+xml</dc:format>
        <dc:type
           rdf:resource="http://purl.org/dc/dcmitype/StillImage" />
        <dc:title></dc:title>
      </cc:Work>
    </rdf:RDF>
  </metadata>
  <g
     inkscape:label="Calque 1"
     inkscape:groupmode="layer"
     id="layer1"
     transform="translate(269.89207,-162.07408)">
    <g
       id="g8326"
       transform="matrix(0.3687831,0,0,0.3687831,212.61737,130.09837)">
      <path
         id="rect8096-2"
         style="fill:#ffffff;fill-opacity:1;stroke:#000000;stroke-width:0.661458;stroke-linecap:round;stroke-linejoin:round;stroke-miterlimit:4;stroke-dasharray:none;stroke-opacity:1;paint-order:markers fill stroke;stop-color:#000000"
         d="m -1288.6811,99.037948 c -0.6669,0 -1.1269,0.541094 -1.2041,1.203542 l -2.0531,17.62993 c -0.072,0.61712 0.5002,1.11238 1.1214,1.12138 l 1.403,0.0202 1.5467,-19.975006 z"
         sodipodi:nodetypes="scccccs" />
      <path
         id="path8184-0"
         style="fill:#ffffff;fill-opacity:1;stroke:#000000;stroke-width:0.661458;stroke-linecap:round;stroke-linejoin:round;stroke-miterlimit:4;stroke-dasharray:none;stroke-opacity:1;paint-order:markers fill stroke;stop-color:#000000"
         d="m -1290.0283,130.00402 c -6.9413,0 -12.9229,5.66006 -13.9191,12.52946 l -4.1046,28.30733 h 65.0265 l -4.1047,-28.30733 c -0.9961,-6.8694 -6.9777,-12.52946 -13.919,-12.52946 h -14.4896 z" />
      <path
         style="fill:#ffffff;fill-opacity:1;stroke:#000000;stroke-width:0.661458;stroke-linecap:round;stroke-linejoin:miter;stroke-miterlimit:4;stroke-dasharray:none;stroke-opacity:1"
         d="m -1296.219,140.4778 -2.7486,30.27871"
         id="path8182-2"
         sodipodi:nodetypes="cc" />
      <path
         style="fill:#ffffff;fill-opacity:1;stroke:#000000;stroke-width:0.661458;stroke-linecap:round;stroke-linejoin:miter;stroke-miterlimit:4;stroke-dasharray:none;stroke-opacity:1"
         d="m -1254.7651,140.4778 2.7427,30.21211"
         id="path8186-3"
         sodipodi:nodetypes="cc" />
      <path
         id="path8104-7"
         style="fill:#ffffff;fill-opacity:1;stroke:#000000;stroke-width:0.661458;stroke-linecap:round;stroke-linejoin:round;stroke-miterlimit:4;stroke-dasharray:none;stroke-opacity:1;paint-order:markers fill stroke;stop-color:#000000"
         d="m -1265.0574,136.80121 c 2.4533,0 4.6178,-1.98236 4.4284,-4.42834 l -3.1616,-40.833043 c -0.1894,-2.44598 -1.9751,-4.42834 -4.4284,-4.42834 h -14.6395 c -2.4533,0 -4.239,1.98236 -4.4284,4.42834 l -3.1616,40.833043 c -0.1894,2.44598 1.9751,4.42834 4.4284,4.42834 z"
         sodipodi:nodetypes="cssccsscc" />
      <path
         id="path8106-5"
         style="fill:#000000;fill-opacity:1;stroke:none;stroke-width:0.661458;stroke-linecap:round;stroke-linejoin:round;stroke-miterlimit:4;stroke-dasharray:none;stroke-opacity:1;paint-order:markers fill stroke;stop-color:#000000"
         d="m -1266.8164,101.92621 c 1.0356,0 1.4508,-0.92198 1.8693,-1.86922 l 1.5595,-3.530283 c 0.4185,-0.94724 -0.8336,-1.86922 -1.8692,-1.86922 h -20.5639 c -1.0356,0 -2.2877,0.92198 -1.8692,1.86922 l 1.5595,3.530283 c 0.4185,0.94724 0.8337,1.86922 1.8693,1.86922 z"
         sodipodi:nodetypes="cssccsscc" />
      <path
         id="path8110-9"
         style="fill:#ffffff;fill-opacity:1;stroke:#000000;stroke-width:0.661458;stroke-linecap:round;stroke-linejoin:round;stroke-miterlimit:4;stroke-dasharray:none;stroke-opacity:1;paint-order:markers fill stroke;stop-color:#000000"
         d="m -1270.6137,87.036737 c 0.8488,0 1.3539,0.70229 1.5322,1.53217 l 0.9983,4.64679 c 0.1784,0.82989 -0.6833,1.53217 -1.5321,1.53217 h -5.9235 -5.9234 c -0.8488,0 -1.7105,-0.70228 -1.5322,-1.53217 l 0.9984,-4.64679 c 0.1783,-0.82988 0.6834,-1.53217 1.5322,-1.53217 h 4.925 z"
         sodipodi:nodetypes="sssscsssscs" />
      <path
         id="path8112-2"
         style="fill:#ffffff;fill-opacity:1;stroke:#000000;stroke-width:0.661458;stroke-linecap:round;stroke-linejoin:round;stroke-miterlimit:4;stroke-dasharray:none;stroke-opacity:1;paint-order:markers fill stroke;stop-color:#000000"
         d="m -1262.3964,99.037947 c 0.6669,0 1.1268,0.5411 1.2041,1.203553 l 2.0531,17.62993 c 0.072,0.61711 -0.5002,1.11238 -1.1214,1.12137 l -1.403,0.0202 -1.5467,-19.975013 z"
         sodipodi:nodetypes="scccccs" />
      <path
         id="rect8122-2"
         style="fill:#ffffff;fill-opacity:1;stroke:#000000;stroke-width:0.661458;stroke-linecap:round;stroke-linejoin:round;stroke-miterlimit:4;stroke-dasharray:none;stroke-opacity:1;paint-order:markers fill stroke;stop-color:#000000"
         d="m -1279.0769,136.80121 c -2.4533,0 -3.9883,-2.01483 -4.4283,-4.42834 l -4.84,-26.54554 c -0.4401,-2.41351 1.975,-4.42834 4.4283,-4.42834"
         sodipodi:nodetypes="cssc" />
      <path
         id="path8146-8"
         style="fill:#ffffff;fill-opacity:1;stroke:#000000;stroke-width:0.661458;stroke-linecap:round;stroke-linejoin:round;stroke-miterlimit:4;stroke-dasharray:none;stroke-opacity:1;paint-order:markers fill stroke;stop-color:#000000"
         d="m -1267.1606,101.39899 c 2.4533,0 4.8683,2.01483 4.4283,4.42834 l -4.84,26.54554 c -0.44,2.41351 -1.975,4.42834 -4.4283,4.42834 h -7.0763 c -2.4533,0 -3.9883,-2.01483 -4.4283,-4.42834 l -4.84,-26.54554 c -0.4401,-2.41351 1.975,-4.42834 4.4283,-4.42834 z"
         sodipodi:nodetypes="cssccsscc" />
      <path
         style="fill:#000000;fill-opacity:1;stroke:none;stroke-width:0.661458;stroke-linecap:butt;stroke-linejoin:miter;stroke-miterlimit:4;stroke-dasharray:none;stroke-opacity:1"
         d="m -1273.4812,122.8872 c 0.5223,-0.12054 1.0323,0.0173 1.5758,0.36908 l 4.2202,2.73188 c 0.3386,0.21915 0.4073,0.85095 -0.4596,0.65636 -2.4212,-0.54345 -4.6731,-1.53278 -7.394,-1.53278 -2.7208,0 -4.9727,0.98933 -7.3939,1.53278 -0.867,0.19459 -0.7982,-0.43721 -0.4596,-0.65636 l 4.2202,-2.73188 c 0.5434,-0.35181 1.0535,-0.48962 1.5757,-0.36908 0.5835,0.13468 1.1349,0.35325 2.0576,0.35325 0.9228,0 1.4742,-0.21857 2.0576,-0.35325 z"
         id="path8164-9"
         sodipodi:nodetypes="sssssssssss" />
      <path
         style="fill:#000000;fill-opacity:1;stroke:none;stroke-width:0.661458;stroke-linecap:butt;stroke-linejoin:miter;stroke-miterlimit:4;stroke-dasharray:none;stroke-opacity:1"
         d="m -1270.7696,127.846 c 0.8817,0.23858 1.3007,-0.003 0.3981,-0.63658 -0.9087,-0.63825 -2.511,-1.45928 -5.1673,-1.45928 -2.6562,0 -4.2585,0.82103 -5.1672,1.45928 -0.9026,0.63397 -0.4836,0.87516 0.3981,0.63658 1.2439,-0.33662 2.6419,-0.68379 4.7691,-0.68379 2.1273,0 3.5253,0.34717 4.7692,0.68379 z"
         id="path8175-7"
         sodipodi:nodetypes="sssssss" />
      <path
         id="path8108-3"
         style="fill:#ffffff;fill-opacity:1;stroke:#000000;stroke-width:0.661458;stroke-linecap:round;stroke-linejoin:round;stroke-miterlimit:4;stroke-dasharray:none;stroke-opacity:1;paint-order:markers fill stroke;stop-color:#000000"
         d="m -1272.3624,101.71153 c 0.8488,0 1.4266,0.68994 1.5322,1.53217 l 1.909,15.22941 c 0.1056,0.84223 -0.6834,1.53216 -1.5322,1.53216 h -5.0853 -5.0854 c -0.8488,0 -1.6378,-0.68993 -1.5322,-1.53216 l 1.909,-15.22941 c 0.1056,-0.84223 0.6834,-1.53217 1.5322,-1.53217"
         sodipodi:nodetypes="cssscsssc" />
      <rect
         style="fill:#ffffff;fill-opacity:1;stroke:#000000;stroke-width:0.661458;stroke-linecap:round;stroke-linejoin:round;stroke-miterlimit:4;stroke-dasharray:none;stroke-opacity:1;paint-order:markers fill stroke;stop-color:#000000"
         id="rect8091-6"
         width="6.0454602"
         height="19.276848"
         x="-1278.5615"
         y="96.842758"
         ry="1.5321677" />
      <path
         id="path8152-1"
         style="fill:#000000;fill-opacity:1;stroke:none;stroke-width:0.661458;stroke-linecap:butt;stroke-linejoin:miter;stroke-miterlimit:4;stroke-dasharray:none;stroke-opacity:1"
         d="m -1278.782,114.07321 c -2.3146,0.64372 -3.0494,5.05085 -3.0494,5.05085 -0.03,0.0819 -0.055,0.15984 -0.083,0.2403 0.2847,0.38689 0.7756,0.64079 1.2899,0.64079 h 5.0854 5.0855 c 0.5175,0 1.0112,-0.257 1.295,-0.64803 -0.028,-0.0775 -0.055,-0.15503 -0.088,-0.23306 0,0 -0.7348,-4.40713 -3.0495,-5.05085 h -0.2206 v 0.51418 c 0,0.84882 -0.6834,1.5322 -1.5322,1.5322 h -2.9807 c -0.8488,0 -1.5322,-0.68338 -1.5322,-1.5322 v -0.51418 z" />
    </g>
  </g>
</svg>
