<?xml version="1.0" encoding="UTF-8" standalone="no"?>
<svg
   xmlns:dc="http://purl.org/dc/elements/1.1/"
   xmlns:cc="http://creativecommons.org/ns#"
   xmlns:rdf="http://www.w3.org/1999/02/22-rdf-syntax-ns#"
   xmlns:svg="http://www.w3.org/2000/svg"
   xmlns="http://www.w3.org/2000/svg"
   xmlns:sodipodi="http://sodipodi.sourceforge.net/DTD/sodipodi-0.dtd"
   xmlns:inkscape="http://www.inkscape.org/namespaces/inkscape"
   width="27.817259mm"
   height="27.81723mm"
   viewBox="0 0 27.817259 27.81723"
   version="1.1"
   id="svg8"
   inkscape:version="1.0.2 (e86c870879, 2021-01-15)"
   sodipodi:docname="frontispice-arche-evidee.svg">
  <defs
     id="defs2">
    <clipPath
       clipPathUnits="userSpaceOnUse"
       id="clipPath7285">
      <path
         style="fill:none;stroke:#000000;stroke-width:0.144765px;stroke-linecap:butt;stroke-linejoin:miter;stroke-opacity:1"
         d="m -359.90969,-391.28838 1.10411,8.47381 30.12682,-10.89097 -3.67949,-7.40809 z"
         id="path7287" />
    </clipPath>
  </defs>
  <sodipodi:namedview
     id="base"
     pagecolor="#ffffff"
     bordercolor="#666666"
     borderopacity="1.0"
     inkscape:pageopacity="0.0"
     inkscape:pageshadow="2"
     inkscape:zoom="2.5436091"
     inkscape:cx="-144.04539"
     inkscape:cy="44.313849"
     inkscape:document-units="mm"
     inkscape:current-layer="layer1"
     inkscape:document-rotation="0"
     showgrid="false"
     inkscape:window-width="1916"
     inkscape:window-height="1038"
     inkscape:window-x="0"
     inkscape:window-y="40"
     inkscape:window-maximized="0" />
  <metadata
     id="metadata5">
    <rdf:RDF>
      <cc:Work
         rdf:about="">
        <dc:format>image/svg+xml</dc:format>
        <dc:type
           rdf:resource="http://purl.org/dc/dcmitype/StillImage" />
        <dc:title></dc:title>
      </cc:Work>
    </rdf:RDF>
  </metadata>
  <g
     inkscape:label="Calque 1"
     inkscape:groupmode="layer"
     id="layer1"
     transform="translate(219.66775,-165.92411)">
    <path
       id="path3424"
       style="color:#000000;font-style:normal;font-variant:normal;font-weight:normal;font-stretch:normal;font-size:medium;line-height:normal;font-family:sans-serif;font-variant-ligatures:normal;font-variant-position:normal;font-variant-caps:normal;font-variant-numeric:normal;font-variant-alternates:normal;font-variant-east-asian:normal;font-feature-settings:normal;font-variation-settings:normal;text-indent:0;text-align:start;text-decoration:none;text-decoration-line:none;text-decoration-style:solid;text-decoration-color:#000000;letter-spacing:normal;word-spacing:normal;text-transform:none;writing-mode:lr-tb;direction:ltr;text-orientation:mixed;dominant-baseline:auto;baseline-shift:baseline;text-anchor:start;white-space:normal;shape-padding:0;shape-margin:0;inline-size:0;clip-rule:nonzero;display:inline;overflow:visible;visibility:visible;isolation:auto;mix-blend-mode:normal;color-interpolation:sRGB;color-interpolation-filters:linearRGB;solid-color:#000000;solid-opacity:1;vector-effect:none;fill:#000000;fill-opacity:1;fill-rule:nonzero;stroke:none;stroke-width:1;stroke-linecap:butt;stroke-linejoin:miter;stroke-miterlimit:4;stroke-dasharray:none;stroke-dashoffset:0;stroke-opacity:1;color-rendering:auto;image-rendering:auto;shape-rendering:auto;text-rendering:auto;enable-background:accumulate;stop-color:#000000"
       d="m -218.79262,176.24256 c -0.1823,0.42138 -0.33226,0.85603 -0.44855,1.30018 l 7.33206,-6.19615 z m -0.67543,2.48357 c -0.0409,0.33337 -0.0631,0.66875 -0.0666,1.00459 l 10.00866,-8.27923 z m -0.0259,1.97817 c 0.0279,0.28691 0.0694,0.57231 0.12454,0.85525 l 11.67162,-9.57191 z m 5.52318,-9.21959 c -0.86159,0.35898 -1.6624,0.84916 -2.37403,1.45314 -0.51432,0.43677 -0.97816,0.92974 -1.38284,1.46968 z m -5.19195,10.91975 c 0.0756,0.25414 0.16233,0.50485 0.25996,0.75137 l 11.52329,-9.45744 z m 0.59378,1.49655 c 0.11412,0.22679 0.23773,0.44868 0.37052,0.66507 l 8.64156,-7.21598 z m 0.81648,1.32395 c 0.11343,0.15286 0.23167,0.30211 0.35451,0.44752 l 0.0444,0.0517 c 0.0246,0.0288 0.0495,0.0573 0.0744,0.0858 l 7.22614,-6.11451 z m 1.02629,1.15962 c 0.18521,0.1762 0.3778,0.34447 0.57724,0.50436 l 6.15929,-5.28458 z m 1.24489,0.99063 c 0.22437,0.14855 0.45525,0.28701 0.69194,0.41496 l 5.19319,-4.53345 z m 1.49241,0.79737 c 0.2734,0.11475 0.55227,0.21599 0.83561,0.30334 l 4.2023,-3.76244 z m 1.81645,0.54622 c 0.34739,0.0658 0.69836,0.11119 1.05108,0.13591 l 3.03726,-2.85656 z m 2.34558,0.13332 c 0.522,-0.0384 1.03968,-0.12212 1.5472,-0.25011 l 1.27225,-1.48326 z"
       sodipodi:nodetypes="cccccccccccccccccccccccccccccccccccccccccccccccccc" />
    <g
       id="g1595"
       transform="matrix(0.23365412,0,0,0.23365412,-278.10829,82.725104)"
       style="stroke-width:1.13237;stroke-miterlimit:4;stroke-dasharray:none">
      <circle
         style="fill:none;stroke:#000000;stroke-width:1.13237;stroke-linecap:round;stroke-linejoin:round;stroke-miterlimit:4;stroke-dasharray:none;stroke-opacity:1;paint-order:markers fill stroke;stop-color:#000000"
         id="path1583"
         sodipodi:type="arc"
         sodipodi:cx="289.38669"
         sodipodi:cy="415.60419"
         sodipodi:rx="38.707138"
         sodipodi:ry="38.707138"
         sodipodi:start="2.4396736"
         sodipodi:end="2.4321163"
         sodipodi:open="true"
         sodipodi:arc-type="arc"
         d="m 259.82974,440.59678 a 38.707138,38.707138 0 0 1 4.50856,-54.50227 38.707138,38.707138 0 0 1 54.51068,4.40558 38.707138,38.707138 0 0 1 -4.30258,54.51891 38.707138,38.707138 0 0 1 -54.52694,-4.19957" />
      <circle
         style="fill:none;stroke:#000000;stroke-width:1.13237;stroke-linecap:round;stroke-linejoin:round;stroke-miterlimit:4;stroke-dasharray:none;stroke-opacity:1;paint-order:markers fill stroke;stop-color:#000000"
         id="circle1585"
         sodipodi:type="arc"
         sodipodi:cx="309.64221"
         sodipodi:cy="415.60419"
         sodipodi:rx="58.962673"
         sodipodi:ry="58.962673"
         sodipodi:start="2.4396736"
         sodipodi:end="2.4321163"
         sodipodi:open="true"
         sodipodi:arc-type="arc"
         d="m 264.61805,453.67546 a 58.962673,58.962673 0 0 1 6.86789,-83.02343 58.962673,58.962673 0 0 1 83.03625,6.71103 58.962673,58.962673 0 0 1 -6.55412,83.04878 58.962673,58.962673 0 0 1 -83.06102,-6.39721" />
      <path
         id="circle1587"
         style="fill:none;stroke:#000000;stroke-width:4.27983;stroke-linecap:round;stroke-linejoin:round;stroke-miterlimit:4;stroke-dasharray:none;stroke-opacity:1;paint-order:markers fill stroke;stop-color:#000000"
         d="m 1175.5098,1449.4766 c -4.4793,3.0183 -8.788,6.2824 -12.9063,9.7773 -61.516,52.216 -69.1394,144.3802 -17.039,205.9941 l 0.7167,0.8418 c 8.5343,9.9395 18.3651,18.6877 29.2286,26.0098"
         transform="scale(0.26458333)"
         sodipodi:nodetypes="ccccc" />
    </g>
  </g>
</svg>
